<?xml version="1.0" encoding="UTF-8"?>
<svg id="Layer_1" data-name="Layer 1" xmlns="http://www.w3.org/2000/svg" viewBox="0 0 128.03 127.93">
  <path fill="#d5d3d3" d="M63.99,.04c18.17,0,36.34,.05,54.51-.04,4.84-.02,8.76,3.44,9.41,7.7,.07,.47,.11,.95,.11,1.42,0,36.57,0,73.14,0,109.71,0,4.85-3.86,8.86-8.69,9.07-.32,.01-.64,.01-.96,.01-36.26,0-72.52,0-108.79,0-4.55,0-7.99-2.44-9.19-6.57-.25-.87-.38-1.8-.39-2.7C0,82.21,0,45.75,0,9.3,0,4.11,3.91,.11,9.11,.05c4.39-.05,8.79-.01,13.18-.01,13.9,0,27.8,0,41.69,0Zm4.29,55.78c0-2.19-.05-4.39,.02-6.58,.04-1.11-.34-1.42-1.44-1.41-5.19,.05-10.38,.02-15.57,.02-1.59,0-1.6,0-1.6,1.57,0,19.44,0,38.88-.03,58.32,0,1.23,.38,1.57,1.57,1.56,5.39-.05,10.78-.02,16.17-.02,1.6,0,1.6,0,1.6-1.57,0-9.78-.03-19.56,.02-29.34,.01-2.02,.14-4.07,.5-6.06,.74-4.14,2.65-7.48,7.07-8.58,1.33-.33,2.76-.39,4.14-.38,4.56,.06,7.42,2.19,8.42,6.62,.56,2.46,.77,5.04,.8,7.57,.09,10.06,.05,20.12,.01,30.18,0,1.2,.37,1.59,1.58,1.58,5.39-.05,10.78-.05,16.17,0,1.16,.01,1.58-.28,1.57-1.53-.05-11.66,.09-23.32-.1-34.97-.06-3.87-.59-7.8-1.45-11.57-1.56-6.79-5.51-11.75-12.45-13.7-2.39-.67-4.93-.83-7.41-1.13-4.2-.49-8.16,.36-11.87,2.35-3.16,1.7-5.65,4.12-7.74,7.07Zm-49.51,22.71c0,9.78,.01,19.55-.02,29.33,0,.99,.21,1.44,1.3,1.43,5.59-.04,11.18-.04,16.77,0,1.01,0,1.29-.38,1.29-1.35-.02-19.59-.02-39.19,0-58.78,0-1.08-.37-1.34-1.39-1.33-5.51,.04-11.02,.05-16.53,0-1.19-.01-1.45,.37-1.45,1.5,.04,9.74,.02,19.47,.02,29.21Zm9.64-38.89c6.18,0,11.13-4.9,11.14-11.02,0-6.21-4.94-11.19-11.11-11.2-6.21,0-11.12,4.93-11.12,11.16,0,6.16,4.92,11.06,11.09,11.06Z"/>
</svg>