<?xml version="1.0" encoding="UTF-8"?>
<svg id="Layer_1" data-name="Layer 1" xmlns="http://www.w3.org/2000/svg" viewBox="0 0 88.79 88.69">
  <defs>
    <style>
      .cls-1 {
        fill: #fff;
      }
    </style>
  </defs>
  <path fill="#ff0e93" d="M44.41,88.69C19.87,88.7,0,68.88,0,44.38,0,19.85,19.82,0,44.34,0c24.59,0,44.46,19.84,44.45,44.39-.02,24.47-19.87,44.28-44.38,44.3Zm-8.98-44.39c-.2,.21-.33,.36-.47,.5-3.43,3.43-6.88,6.84-10.29,10.29-1.76,1.78-2.31,3.94-1.58,6.34,1.41,4.6,7.1,5.99,10.56,2.58,3.39-3.34,6.74-6.72,10.11-10.08,.2-.2,.41-.4,.65-.64,.24,.26,.42,.47,.62,.66,3.38,3.38,6.75,6.76,10.14,10.12,1.44,1.43,3.22,2.06,5.22,1.78,2.59-.35,4.41-1.81,5.23-4.3,.82-2.49,.22-4.72-1.63-6.58-3.4-3.41-6.81-6.81-10.21-10.21-.14-.14-.26-.29-.46-.5,.18-.14,.32-.23,.44-.35,3.43-3.43,6.87-6.85,10.29-10.29,1.6-1.61,2.22-3.58,1.75-5.8-.5-2.38-1.96-4.01-4.28-4.74-2.39-.75-4.56-.22-6.35,1.52-2.44,2.37-4.83,4.8-7.24,7.21-1.17,1.18-2.33,2.37-3.61,3.67-.24-.31-.4-.56-.61-.77-3.32-3.33-6.65-6.65-9.97-9.98-1.48-1.48-3.27-2.19-5.34-1.92-2.57,.33-4.39,1.75-5.25,4.21-.86,2.48-.29,4.72,1.54,6.59,2.42,2.47,4.89,4.9,7.34,7.35,1.11,1.11,2.24,2.2,3.38,3.33Z"/>
  <path class="cls-1" d="M35.43,44.3c-1.15-1.13-2.27-2.22-3.38-3.33-2.45-2.44-4.92-4.87-7.34-7.35-1.83-1.87-2.4-4.11-1.54-6.59,.86-2.46,2.68-3.88,5.25-4.21,2.07-.27,3.86,.44,5.34,1.92,3.32,3.33,6.65,6.65,9.97,9.98,.21,.21,.37,.46,.61,.77,1.28-1.3,2.44-2.49,3.61-3.67,2.41-2.41,4.79-4.84,7.24-7.21,1.79-1.74,3.96-2.27,6.35-1.52,2.32,.73,3.78,2.36,4.28,4.74,.47,2.22-.15,4.19-1.75,5.8-3.42,3.44-6.86,6.86-10.29,10.29-.12,.12-.26,.21-.44,.35,.19,.21,.32,.36,.46,.5,3.4,3.4,6.81,6.8,10.21,10.21,1.85,1.86,2.45,4.09,1.63,6.58-.82,2.49-2.64,3.95-5.23,4.3-2,.27-3.78-.35-5.22-1.78-3.39-3.36-6.76-6.75-10.14-10.12-.2-.2-.38-.4-.62-.66-.24,.24-.45,.44-.65,.64-3.37,3.36-6.72,6.74-10.11,10.08-3.47,3.41-9.15,2.02-10.56-2.58-.73-2.4-.18-4.56,1.58-6.34,3.41-3.45,6.86-6.86,10.29-10.29,.14-.14,.27-.29,.47-.5Z"/>
</svg>